<mxfile host="app.diagrams.net" modified="2024-04-17T19:17:26.557Z" agent="Mozilla/5.0 (Windows NT 10.0; Win64; x64) AppleWebKit/537.36 (KHTML, like Gecko) Chrome/123.0.0.0 Safari/537.36" etag="z0UZdI5p0_whltdJRrXM" version="24.2.5" type="device">
  <diagram name="PÃ¡gina-1" id="3RGN4J-K8iUZBAdd2VSi">
    <mxGraphModel dx="3644" dy="1840" grid="1" gridSize="10" guides="1" tooltips="1" connect="1" arrows="1" fold="1" page="1" pageScale="1" pageWidth="4681" pageHeight="3300" math="0" shadow="0">
      <root>
        <mxCell id="0" />
        <mxCell id="1" parent="0" />
        <mxCell id="7Be9FeTmx1_PYOUSNEBG-18" value="" style="rounded=1;arcSize=10;dashed=1;strokeColor=#F59D56;fillColor=none;gradientColor=none;dashPattern=8 4;strokeWidth=2;" vertex="1" parent="1">
          <mxGeometry x="2450" y="1170" width="280" height="380.75" as="geometry" />
        </mxCell>
        <mxCell id="7Be9FeTmx1_PYOUSNEBG-19" value="" style="rounded=1;arcSize=10;dashed=1;strokeColor=#F59D56;fillColor=none;gradientColor=none;dashPattern=8 4;strokeWidth=2;fontSize=14;" vertex="1" parent="1">
          <mxGeometry x="2839" y="1180" width="280" height="380.75" as="geometry" />
        </mxCell>
        <mxCell id="7Be9FeTmx1_PYOUSNEBG-29" value="" style="rounded=1;arcSize=10;dashed=1;strokeColor=#F59D56;fillColor=none;gradientColor=none;dashPattern=8 4;strokeWidth=2;" vertex="1" parent="1">
          <mxGeometry x="1580" y="680" width="1790" height="1130" as="geometry" />
        </mxCell>
        <mxCell id="7Be9FeTmx1_PYOUSNEBG-24" value="" style="rounded=1;arcSize=10;dashed=1;strokeColor=#F59D56;fillColor=none;gradientColor=none;dashPattern=8 4;strokeWidth=2;" vertex="1" parent="1">
          <mxGeometry x="1830" y="760" width="1490" height="980" as="geometry" />
        </mxCell>
        <mxCell id="7Be9FeTmx1_PYOUSNEBG-26" value="" style="rounded=1;arcSize=10;dashed=1;strokeColor=#F59D56;fillColor=none;gradientColor=none;dashPattern=8 4;strokeWidth=2;" vertex="1" parent="1">
          <mxGeometry x="1980" y="830" width="1280" height="850" as="geometry" />
        </mxCell>
        <mxCell id="7Be9FeTmx1_PYOUSNEBG-5" value="" style="rounded=1;arcSize=10;dashed=1;strokeColor=#ff0000;fillColor=none;gradientColor=none;dashPattern=8 4;strokeWidth=2;" vertex="1" parent="1">
          <mxGeometry x="2370" y="890" width="820" height="710" as="geometry" />
        </mxCell>
        <mxCell id="7Be9FeTmx1_PYOUSNEBG-13" value="" style="sketch=0;points=[[0,0,0],[0.25,0,0],[0.5,0,0],[0.75,0,0],[1,0,0],[0,1,0],[0.25,1,0],[0.5,1,0],[0.75,1,0],[1,1,0],[0,0.25,0],[0,0.5,0],[0,0.75,0],[1,0.25,0],[1,0.5,0],[1,0.75,0]];outlineConnect=0;fontColor=#232F3E;fillColor=#ED7100;strokeColor=#ffffff;dashed=0;verticalLabelPosition=bottom;verticalAlign=top;align=center;html=1;fontSize=12;fontStyle=0;aspect=fixed;shape=mxgraph.aws4.resourceIcon;resIcon=mxgraph.aws4.ec2;" vertex="1" parent="1">
          <mxGeometry x="2510" y="1186" width="138" height="138" as="geometry" />
        </mxCell>
        <mxCell id="7Be9FeTmx1_PYOUSNEBG-14" value="" style="sketch=0;points=[[0,0,0],[0.25,0,0],[0.5,0,0],[0.75,0,0],[1,0,0],[0,1,0],[0.25,1,0],[0.5,1,0],[0.75,1,0],[1,1,0],[0,0.25,0],[0,0.5,0],[0,0.75,0],[1,0.25,0],[1,0.5,0],[1,0.75,0]];outlineConnect=0;fontColor=#232F3E;fillColor=#ED7100;strokeColor=#ffffff;dashed=0;verticalLabelPosition=bottom;verticalAlign=top;align=center;html=1;fontSize=12;fontStyle=0;aspect=fixed;shape=mxgraph.aws4.resourceIcon;resIcon=mxgraph.aws4.ec2;" vertex="1" parent="1">
          <mxGeometry x="2910" y="1201.5" width="138" height="138" as="geometry" />
        </mxCell>
        <mxCell id="7Be9FeTmx1_PYOUSNEBG-15" value="" style="outlineConnect=0;dashed=0;verticalLabelPosition=bottom;verticalAlign=top;align=center;html=1;shape=mxgraph.aws3.rds;fillColor=#2E73B8;gradientColor=none;" vertex="1" parent="1">
          <mxGeometry x="2518.5" y="1385" width="121" height="131" as="geometry" />
        </mxCell>
        <mxCell id="7Be9FeTmx1_PYOUSNEBG-16" value="" style="outlineConnect=0;dashed=0;verticalLabelPosition=bottom;verticalAlign=top;align=center;html=1;shape=mxgraph.aws3.rds_db_instance_read_replica;fillColor=#2E73B8;gradientColor=none;" vertex="1" parent="1">
          <mxGeometry x="2919" y="1380" width="120" height="136" as="geometry" />
        </mxCell>
        <mxCell id="7Be9FeTmx1_PYOUSNEBG-20" value="" style="outlineConnect=0;dashed=0;verticalLabelPosition=bottom;verticalAlign=top;align=center;html=1;shape=mxgraph.aws3.elastic_load_balancing;fillColor=#F58534;gradientColor=none;" vertex="1" parent="1">
          <mxGeometry x="2690" y="930" width="180" height="183" as="geometry" />
        </mxCell>
        <mxCell id="7Be9FeTmx1_PYOUSNEBG-21" value="" style="sketch=0;points=[[0,0,0],[0.25,0,0],[0.5,0,0],[0.75,0,0],[1,0,0],[0,1,0],[0.25,1,0],[0.5,1,0],[0.75,1,0],[1,1,0],[0,0.25,0],[0,0.5,0],[0,0.75,0],[1,0.25,0],[1,0.5,0],[1,0.75,0]];outlineConnect=0;fontColor=#232F3E;fillColor=#8C4FFF;strokeColor=#ffffff;dashed=0;verticalLabelPosition=bottom;verticalAlign=top;align=center;html=1;fontSize=12;fontStyle=0;aspect=fixed;shape=mxgraph.aws4.resourceIcon;resIcon=mxgraph.aws4.route_53;" vertex="1" parent="1">
          <mxGeometry x="1760" y="730" width="178" height="178" as="geometry" />
        </mxCell>
        <mxCell id="7Be9FeTmx1_PYOUSNEBG-25" value="" style="outlineConnect=0;dashed=0;verticalLabelPosition=bottom;verticalAlign=top;align=center;html=1;shape=mxgraph.aws3.cloudfront;fillColor=#F58536;gradientColor=none;" vertex="1" parent="1">
          <mxGeometry x="1900" y="1030" width="160" height="171.5" as="geometry" />
        </mxCell>
        <mxCell id="7Be9FeTmx1_PYOUSNEBG-28" value="&lt;div style=&quot;font-size: 24px;&quot;&gt;&lt;br&gt;&lt;/div&gt;" style="sketch=0;points=[[0,0,0],[0.25,0,0],[0.5,0,0],[0.75,0,0],[1,0,0],[0,1,0],[0.25,1,0],[0.5,1,0],[0.75,1,0],[1,1,0],[0,0.25,0],[0,0.5,0],[0,0.75,0],[1,0.25,0],[1,0.5,0],[1,0.75,0]];outlineConnect=0;fontColor=#232F3E;fillColor=#DD344C;strokeColor=#ffffff;dashed=0;verticalLabelPosition=bottom;verticalAlign=top;align=center;html=1;fontSize=12;fontStyle=0;aspect=fixed;shape=mxgraph.aws4.resourceIcon;resIcon=mxgraph.aws4.waf;" vertex="1" parent="1">
          <mxGeometry x="1510" y="1036.75" width="158" height="158" as="geometry" />
        </mxCell>
        <mxCell id="7Be9FeTmx1_PYOUSNEBG-44" style="edgeStyle=orthogonalEdgeStyle;rounded=0;orthogonalLoop=1;jettySize=auto;html=1;entryX=0.5;entryY=1;entryDx=0;entryDy=0;" edge="1" parent="1" source="7Be9FeTmx1_PYOUSNEBG-31" target="7Be9FeTmx1_PYOUSNEBG-43">
          <mxGeometry relative="1" as="geometry" />
        </mxCell>
        <mxCell id="7Be9FeTmx1_PYOUSNEBG-31" value="Actor" style="shape=umlActor;verticalLabelPosition=bottom;verticalAlign=top;html=1;outlineConnect=0;" vertex="1" parent="1">
          <mxGeometry x="870" y="1450" width="180" height="430" as="geometry" />
        </mxCell>
        <mxCell id="7Be9FeTmx1_PYOUSNEBG-33" style="edgeStyle=orthogonalEdgeStyle;rounded=0;orthogonalLoop=1;jettySize=auto;html=1;exitX=1;exitY=0;exitDx=0;exitDy=0;exitPerimeter=0;entryX=0;entryY=0.5;entryDx=0;entryDy=0;entryPerimeter=0;" edge="1" parent="1" source="7Be9FeTmx1_PYOUSNEBG-28" target="7Be9FeTmx1_PYOUSNEBG-21">
          <mxGeometry relative="1" as="geometry" />
        </mxCell>
        <mxCell id="7Be9FeTmx1_PYOUSNEBG-34" style="edgeStyle=orthogonalEdgeStyle;rounded=0;orthogonalLoop=1;jettySize=auto;html=1;exitX=0.75;exitY=1;exitDx=0;exitDy=0;exitPerimeter=0;entryX=0;entryY=0.21;entryDx=0;entryDy=0;entryPerimeter=0;" edge="1" parent="1" source="7Be9FeTmx1_PYOUSNEBG-21" target="7Be9FeTmx1_PYOUSNEBG-25">
          <mxGeometry relative="1" as="geometry" />
        </mxCell>
        <mxCell id="7Be9FeTmx1_PYOUSNEBG-36" style="edgeStyle=orthogonalEdgeStyle;rounded=0;orthogonalLoop=1;jettySize=auto;html=1;exitX=1;exitY=0.21;exitDx=0;exitDy=0;exitPerimeter=0;entryX=0;entryY=0.5;entryDx=0;entryDy=0;entryPerimeter=0;" edge="1" parent="1" source="7Be9FeTmx1_PYOUSNEBG-25" target="7Be9FeTmx1_PYOUSNEBG-20">
          <mxGeometry relative="1" as="geometry">
            <Array as="points">
              <mxPoint x="2380" y="1066" />
              <mxPoint x="2380" y="1011" />
            </Array>
          </mxGeometry>
        </mxCell>
        <mxCell id="7Be9FeTmx1_PYOUSNEBG-39" value="" style="outlineConnect=0;dashed=0;verticalLabelPosition=bottom;verticalAlign=top;align=center;html=1;shape=mxgraph.aws3.bucket_with_objects;fillColor=#E05243;gradientColor=none;" vertex="1" parent="1">
          <mxGeometry x="2120" y="1284.81" width="170" height="171.12" as="geometry" />
        </mxCell>
        <mxCell id="7Be9FeTmx1_PYOUSNEBG-42" style="edgeStyle=orthogonalEdgeStyle;rounded=0;orthogonalLoop=1;jettySize=auto;html=1;entryX=1;entryY=0.5;entryDx=0;entryDy=0;entryPerimeter=0;" edge="1" parent="1" source="7Be9FeTmx1_PYOUSNEBG-39" target="7Be9FeTmx1_PYOUSNEBG-25">
          <mxGeometry relative="1" as="geometry" />
        </mxCell>
        <mxCell id="7Be9FeTmx1_PYOUSNEBG-43" value="&lt;span style=&quot;font-size: 70px;&quot;&gt;https://track.co/&lt;/span&gt;" style="text;html=1;align=center;verticalAlign=middle;whiteSpace=wrap;rounded=0;" vertex="1" parent="1">
          <mxGeometry x="710" y="1000.75" width="500" height="230" as="geometry" />
        </mxCell>
        <mxCell id="7Be9FeTmx1_PYOUSNEBG-45" style="edgeStyle=orthogonalEdgeStyle;rounded=0;orthogonalLoop=1;jettySize=auto;html=1;entryX=0;entryY=0.5;entryDx=0;entryDy=0;entryPerimeter=0;strokeColor=#000000;" edge="1" parent="1" source="7Be9FeTmx1_PYOUSNEBG-43" target="7Be9FeTmx1_PYOUSNEBG-28">
          <mxGeometry relative="1" as="geometry" />
        </mxCell>
      </root>
    </mxGraphModel>
  </diagram>
</mxfile>
